<svg width="40" height="40" viewBox="0 0 40 40" fill="none" xmlns="http://www.w3.org/2000/svg">
<g clip-path="url(#clip0_252_96)">
<g style="mix-blend-mode:luminosity" opacity="0.4">
<path d="M0 0H40V40H0V0Z" fill="#F7DF1E"/>
<path d="M9.33337 25.7223L12.0542 24.0757C12.5792 25.0063 13.0567 25.7938 14.202 25.7938C15.2999 25.7938 15.9921 25.3643 15.9921 23.6938V12.3333H19.3333V23.741C19.3333 27.2017 17.3048 28.7769 14.3452 28.7769C11.6724 28.7769 10.1209 27.3928 9.33337 25.7223Z" fill="black"/>
<path d="M20.6667 23.7092L23.0074 22.354C23.6236 23.3603 24.4244 24.0994 25.8412 24.0994C27.0323 24.0994 27.7919 23.5039 27.7919 22.6825C27.7919 21.6969 27.0116 21.3478 25.6974 20.773L24.9789 20.4648C22.9048 19.582 21.529 18.4731 21.529 16.1322C21.529 13.9761 23.1717 12.3333 25.7386 12.3333C27.5661 12.3333 28.8803 12.9699 29.8248 14.6332L27.5865 16.0705C27.0937 15.1876 26.56 14.8386 25.7386 14.8386C24.8967 14.8386 24.3628 15.3725 24.3628 16.0705C24.3628 16.933 24.8967 17.2822 26.1286 17.8161L26.8473 18.1241C29.2908 19.1714 30.6667 20.239 30.6667 22.6414C30.6667 25.2289 28.6338 26.6456 25.9028 26.6456C23.2334 26.6456 21.5085 25.3726 20.6667 23.7092Z" fill="black"/>
</g>
</g>
<defs>
<clipPath id="clip0_252_96">
<rect width="40" height="40" fill="white"/>
</clipPath>
</defs>
</svg>
