<svg width="46" height="47" viewBox="0 0 46 47" fill="none" xmlns="http://www.w3.org/2000/svg">
<path d="M1.16016 38.8125H3.04297C3.47005 38.8125 3.83073 38.8776 4.125 39.0078C4.42188 39.138 4.64714 39.3307 4.80078 39.5859C4.95703 39.8385 5.03516 40.1497 5.03516 40.5195C5.03516 40.7799 4.98177 41.0182 4.875 41.2344C4.77083 41.4479 4.61979 41.6302 4.42188 41.7812C4.22656 41.9297 3.99219 42.0404 3.71875 42.1133L3.50781 42.1953H1.73828L1.73047 41.582H3.06641C3.33724 41.582 3.5625 41.5352 3.74219 41.4414C3.92188 41.3451 4.05729 41.2161 4.14844 41.0547C4.23958 40.8932 4.28516 40.7148 4.28516 40.5195C4.28516 40.3008 4.24219 40.1094 4.15625 39.9453C4.07031 39.7812 3.9349 39.6549 3.75 39.5664C3.56771 39.4753 3.33203 39.4297 3.04297 39.4297H1.91406V44.5H1.16016V38.8125ZM4.48438 44.5L3.10156 41.9219L3.88672 41.918L5.28906 44.4531V44.5H4.48438ZM7.73438 44.5781C7.4401 44.5781 7.17318 44.5286 6.93359 44.4297C6.69661 44.3281 6.49219 44.1862 6.32031 44.0039C6.15104 43.8216 6.02083 43.6055 5.92969 43.3555C5.83854 43.1055 5.79297 42.832 5.79297 42.5352V42.3711C5.79297 42.0273 5.84375 41.7214 5.94531 41.4531C6.04688 41.1823 6.1849 40.9531 6.35938 40.7656C6.53385 40.5781 6.73177 40.4362 6.95312 40.3398C7.17448 40.2435 7.40365 40.1953 7.64062 40.1953C7.94271 40.1953 8.20312 40.2474 8.42188 40.3516C8.64323 40.4557 8.82422 40.6016 8.96484 40.7891C9.10547 40.974 9.20964 41.1927 9.27734 41.4453C9.34505 41.6953 9.37891 41.9688 9.37891 42.2656V42.5898H6.22266V42H8.65625V41.9453C8.64583 41.7578 8.60677 41.5755 8.53906 41.3984C8.47396 41.2214 8.36979 41.0755 8.22656 40.9609C8.08333 40.8464 7.88802 40.7891 7.64062 40.7891C7.47656 40.7891 7.32552 40.8242 7.1875 40.8945C7.04948 40.9622 6.93099 41.0638 6.83203 41.1992C6.73307 41.3346 6.65625 41.5 6.60156 41.6953C6.54688 41.8906 6.51953 42.1159 6.51953 42.3711V42.5352C6.51953 42.7357 6.54688 42.9245 6.60156 43.1016C6.65885 43.276 6.74089 43.4297 6.84766 43.5625C6.95703 43.6953 7.08854 43.7995 7.24219 43.875C7.39844 43.9505 7.57552 43.9883 7.77344 43.9883C8.02865 43.9883 8.24479 43.9362 8.42188 43.832C8.59896 43.7279 8.75391 43.5885 8.88672 43.4141L9.32422 43.7617C9.23307 43.8997 9.11719 44.0312 8.97656 44.1562C8.83594 44.2812 8.66276 44.3828 8.45703 44.4609C8.25391 44.5391 8.01302 44.5781 7.73438 44.5781ZM12.7148 43.7773V41.6016C12.7148 41.4349 12.681 41.2904 12.6133 41.168C12.5482 41.043 12.4492 40.9466 12.3164 40.8789C12.1836 40.8112 12.0195 40.7773 11.8242 40.7773C11.6419 40.7773 11.4818 40.8086 11.3438 40.8711C11.2083 40.9336 11.1016 41.0156 11.0234 41.1172C10.9479 41.2188 10.9102 41.3281 10.9102 41.4453H10.1875C10.1875 41.2943 10.2266 41.1445 10.3047 40.9961C10.3828 40.8477 10.4948 40.7135 10.6406 40.5938C10.7891 40.4714 10.9661 40.375 11.1719 40.3047C11.3802 40.2318 11.612 40.1953 11.8672 40.1953C12.1745 40.1953 12.4453 40.2474 12.6797 40.3516C12.9167 40.4557 13.1016 40.6133 13.2344 40.8242C13.3698 41.0326 13.4375 41.2943 13.4375 41.6094V43.5781C13.4375 43.7188 13.4492 43.8685 13.4727 44.0273C13.4987 44.1862 13.5365 44.3229 13.5859 44.4375V44.5H12.832C12.7956 44.4167 12.7669 44.306 12.7461 44.168C12.7253 44.0273 12.7148 43.8971 12.7148 43.7773ZM12.8398 41.9375L12.8477 42.4453H12.1172C11.9115 42.4453 11.7279 42.4622 11.5664 42.4961C11.4049 42.5273 11.2695 42.5755 11.1602 42.6406C11.0508 42.7057 10.9674 42.7878 10.9102 42.8867C10.8529 42.9831 10.8242 43.0964 10.8242 43.2266C10.8242 43.3594 10.8542 43.4805 10.9141 43.5898C10.974 43.6992 11.0638 43.7865 11.1836 43.8516C11.306 43.9141 11.4557 43.9453 11.6328 43.9453C11.8542 43.9453 12.0495 43.8984 12.2188 43.8047C12.388 43.7109 12.5221 43.5964 12.6211 43.4609C12.7227 43.3255 12.7773 43.194 12.7852 43.0664L13.0938 43.4141C13.0755 43.5234 13.026 43.6445 12.9453 43.7773C12.8646 43.9102 12.7565 44.0378 12.6211 44.1602C12.4883 44.2799 12.3294 44.3802 12.1445 44.4609C11.9622 44.5391 11.7565 44.5781 11.5273 44.5781C11.2409 44.5781 10.9896 44.5221 10.7734 44.4102C10.5599 44.2982 10.3932 44.1484 10.2734 43.9609C10.1562 43.7708 10.0977 43.5586 10.0977 43.3242C10.0977 43.0977 10.1419 42.8984 10.2305 42.7266C10.319 42.5521 10.4466 42.4076 10.6133 42.293C10.7799 42.1758 10.9805 42.0872 11.2148 42.0273C11.4492 41.9674 11.7109 41.9375 12 41.9375H12.8398ZM16.2656 43.9844C16.4375 43.9844 16.5964 43.9492 16.7422 43.8789C16.888 43.8086 17.0078 43.7122 17.1016 43.5898C17.1953 43.4648 17.2487 43.3229 17.2617 43.1641H17.9492C17.9362 43.4141 17.8516 43.6471 17.6953 43.8633C17.5417 44.0768 17.3398 44.25 17.0898 44.3828C16.8398 44.513 16.5651 44.5781 16.2656 44.5781C15.9479 44.5781 15.6706 44.5221 15.4336 44.4102C15.1992 44.2982 15.0039 44.1445 14.8477 43.9492C14.694 43.7539 14.5781 43.5299 14.5 43.2773C14.4245 43.0221 14.3867 42.7526 14.3867 42.4688V42.3047C14.3867 42.0208 14.4245 41.7526 14.5 41.5C14.5781 41.2448 14.694 41.0195 14.8477 40.8242C15.0039 40.6289 15.1992 40.4753 15.4336 40.3633C15.6706 40.2513 15.9479 40.1953 16.2656 40.1953C16.5964 40.1953 16.8854 40.263 17.1328 40.3984C17.3802 40.5312 17.5742 40.7135 17.7148 40.9453C17.8581 41.1745 17.9362 41.4349 17.9492 41.7266H17.2617C17.2487 41.5521 17.1992 41.3945 17.1133 41.2539C17.0299 41.1133 16.9154 41.0013 16.7695 40.918C16.6263 40.832 16.4583 40.7891 16.2656 40.7891C16.0443 40.7891 15.8581 40.8333 15.707 40.9219C15.5586 41.0078 15.4401 41.125 15.3516 41.2734C15.2656 41.4193 15.2031 41.582 15.1641 41.7617C15.1276 41.9388 15.1094 42.1198 15.1094 42.3047V42.4688C15.1094 42.6536 15.1276 42.8359 15.1641 43.0156C15.2005 43.1953 15.2617 43.3581 15.3477 43.5039C15.4362 43.6497 15.5547 43.7669 15.7031 43.8555C15.8542 43.9414 16.0417 43.9844 16.2656 43.9844ZM20.5312 40.2734V40.8281H18.2461V40.2734H20.5312ZM19.0195 39.2461H19.7422V43.4531C19.7422 43.5964 19.7643 43.7044 19.8086 43.7773C19.8529 43.8503 19.9102 43.8984 19.9805 43.9219C20.0508 43.9453 20.1263 43.957 20.207 43.957C20.2669 43.957 20.3294 43.9518 20.3945 43.9414C20.4622 43.9284 20.513 43.918 20.5469 43.9102L20.5508 44.5C20.4935 44.5182 20.418 44.5352 20.3242 44.5508C20.2331 44.569 20.1224 44.5781 19.9922 44.5781C19.8151 44.5781 19.6523 44.543 19.5039 44.4727C19.3555 44.4023 19.237 44.2852 19.1484 44.1211C19.0625 43.9544 19.0195 43.7305 19.0195 43.4492V39.2461ZM27.8477 38.8125V44.5H27.0898L24.2266 40.1133V44.5H23.4727V38.8125H24.2266L27.1016 43.2109V38.8125H27.8477ZM31.5664 43.7773V41.6016C31.5664 41.4349 31.5326 41.2904 31.4648 41.168C31.3997 41.043 31.3008 40.9466 31.168 40.8789C31.0352 40.8112 30.8711 40.7773 30.6758 40.7773C30.4935 40.7773 30.3333 40.8086 30.1953 40.8711C30.0599 40.9336 29.9531 41.0156 29.875 41.1172C29.7995 41.2188 29.7617 41.3281 29.7617 41.4453H29.0391C29.0391 41.2943 29.0781 41.1445 29.1562 40.9961C29.2344 40.8477 29.3464 40.7135 29.4922 40.5938C29.6406 40.4714 29.8177 40.375 30.0234 40.3047C30.2318 40.2318 30.4635 40.1953 30.7188 40.1953C31.026 40.1953 31.2969 40.2474 31.5312 40.3516C31.7682 40.4557 31.9531 40.6133 32.0859 40.8242C32.2214 41.0326 32.2891 41.2943 32.2891 41.6094V43.5781C32.2891 43.7188 32.3008 43.8685 32.3242 44.0273C32.3503 44.1862 32.388 44.3229 32.4375 44.4375V44.5H31.6836C31.6471 44.4167 31.6185 44.306 31.5977 44.168C31.5768 44.0273 31.5664 43.8971 31.5664 43.7773ZM31.6914 41.9375L31.6992 42.4453H30.9688C30.763 42.4453 30.5794 42.4622 30.418 42.4961C30.2565 42.5273 30.1211 42.5755 30.0117 42.6406C29.9023 42.7057 29.819 42.7878 29.7617 42.8867C29.7044 42.9831 29.6758 43.0964 29.6758 43.2266C29.6758 43.3594 29.7057 43.4805 29.7656 43.5898C29.8255 43.6992 29.9154 43.7865 30.0352 43.8516C30.1576 43.9141 30.3073 43.9453 30.4844 43.9453C30.7057 43.9453 30.901 43.8984 31.0703 43.8047C31.2396 43.7109 31.3737 43.5964 31.4727 43.4609C31.5742 43.3255 31.6289 43.194 31.6367 43.0664L31.9453 43.4141C31.9271 43.5234 31.8776 43.6445 31.7969 43.7773C31.7161 43.9102 31.6081 44.0378 31.4727 44.1602C31.3398 44.2799 31.181 44.3802 30.9961 44.4609C30.8138 44.5391 30.6081 44.5781 30.3789 44.5781C30.0924 44.5781 29.8411 44.5221 29.625 44.4102C29.4115 44.2982 29.2448 44.1484 29.125 43.9609C29.0078 43.7708 28.9492 43.5586 28.9492 43.3242C28.9492 43.0977 28.9935 42.8984 29.082 42.7266C29.1706 42.5521 29.2982 42.4076 29.4648 42.293C29.6315 42.1758 29.832 42.0872 30.0664 42.0273C30.3008 41.9674 30.5625 41.9375 30.8516 41.9375H31.6914ZM35.1953 40.2734V40.8281H32.9102V40.2734H35.1953ZM33.6836 39.2461H34.4062V43.4531C34.4062 43.5964 34.4284 43.7044 34.4727 43.7773C34.5169 43.8503 34.5742 43.8984 34.6445 43.9219C34.7148 43.9453 34.7904 43.957 34.8711 43.957C34.931 43.957 34.9935 43.9518 35.0586 43.9414C35.1263 43.9284 35.1771 43.918 35.2109 43.9102L35.2148 44.5C35.1576 44.5182 35.082 44.5352 34.9883 44.5508C34.8971 44.569 34.7865 44.5781 34.6562 44.5781C34.4792 44.5781 34.3164 44.543 34.168 44.4727C34.0195 44.4023 33.901 44.2852 33.8125 44.1211C33.7266 43.9544 33.6836 43.7305 33.6836 43.4492V39.2461ZM36.8281 40.2734V44.5H36.1016V40.2734H36.8281ZM36.0469 39.1523C36.0469 39.0352 36.082 38.9362 36.1523 38.8555C36.2253 38.7747 36.332 38.7344 36.4727 38.7344C36.6107 38.7344 36.7161 38.7747 36.7891 38.8555C36.8646 38.9362 36.9023 39.0352 36.9023 39.1523C36.9023 39.2643 36.8646 39.3607 36.7891 39.4414C36.7161 39.5195 36.6107 39.5586 36.4727 39.5586C36.332 39.5586 36.2253 39.5195 36.1523 39.4414C36.082 39.3607 36.0469 39.2643 36.0469 39.1523ZM39.2734 43.8477L40.4297 40.2734H41.168L39.6484 44.5H39.1641L39.2734 43.8477ZM38.3086 40.2734L39.5 43.8672L39.582 44.5H39.0977L37.5664 40.2734H38.3086ZM43.5625 44.5781C43.2682 44.5781 43.0013 44.5286 42.7617 44.4297C42.5247 44.3281 42.3203 44.1862 42.1484 44.0039C41.9792 43.8216 41.849 43.6055 41.7578 43.3555C41.6667 43.1055 41.6211 42.832 41.6211 42.5352V42.3711C41.6211 42.0273 41.6719 41.7214 41.7734 41.4531C41.875 41.1823 42.013 40.9531 42.1875 40.7656C42.362 40.5781 42.5599 40.4362 42.7812 40.3398C43.0026 40.2435 43.2318 40.1953 43.4688 40.1953C43.7708 40.1953 44.0312 40.2474 44.25 40.3516C44.4714 40.4557 44.6523 40.6016 44.793 40.7891C44.9336 40.974 45.0378 41.1927 45.1055 41.4453C45.1732 41.6953 45.207 41.9688 45.207 42.2656V42.5898H42.0508V42H44.4844V41.9453C44.474 41.7578 44.4349 41.5755 44.3672 41.3984C44.3021 41.2214 44.1979 41.0755 44.0547 40.9609C43.9115 40.8464 43.7161 40.7891 43.4688 40.7891C43.3047 40.7891 43.1536 40.8242 43.0156 40.8945C42.8776 40.9622 42.7591 41.0638 42.6602 41.1992C42.5612 41.3346 42.4844 41.5 42.4297 41.6953C42.375 41.8906 42.3477 42.1159 42.3477 42.3711V42.5352C42.3477 42.7357 42.375 42.9245 42.4297 43.1016C42.487 43.276 42.569 43.4297 42.6758 43.5625C42.7852 43.6953 42.9167 43.7995 43.0703 43.875C43.2266 43.9505 43.4036 43.9883 43.6016 43.9883C43.8568 43.9883 44.0729 43.9362 44.25 43.832C44.4271 43.7279 44.582 43.5885 44.7148 43.4141L45.1523 43.7617C45.0612 43.8997 44.9453 44.0312 44.8047 44.1562C44.6641 44.2812 44.4909 44.3828 44.2852 44.4609C44.082 44.5391 43.8411 44.5781 43.5625 44.5781Z" fill="#61DAFB"/>
<g clip-path="url(#clip0_305_38)">
<path d="M40.5 20.0036C40.5 17.685 37.5964 15.4877 33.1447 14.1251C34.172 9.58777 33.7155 5.9779 31.7036 4.82217C31.2399 4.55108 30.6977 4.42266 30.1056 4.42266V6.01357C30.4338 6.01357 30.6977 6.07778 30.9189 6.19906C31.8891 6.75552 32.31 8.87435 31.9819 11.5996C31.9034 12.2702 31.775 12.9765 31.618 13.697C30.2197 13.3546 28.693 13.0906 27.0879 12.9194C26.1247 11.5996 25.126 10.4011 24.1201 9.35234C26.4458 7.1907 28.6288 6.00644 30.1127 6.00644V4.41553C28.1508 4.41553 25.5826 5.81382 22.9857 8.23942C20.3889 5.82808 17.8206 4.44406 15.8587 4.44406V6.03497C17.3355 6.03497 19.5257 7.2121 21.8514 9.35947C20.8526 10.4082 19.8539 11.5996 18.905 12.9194C17.2927 13.0906 15.766 13.3546 14.3677 13.7042C14.2036 12.9907 14.0823 12.2987 13.9967 11.6353C13.6614 8.91002 14.0752 6.79119 15.0383 6.22759C15.2523 6.09918 15.5306 6.04211 15.8587 6.04211V4.4512C15.2595 4.4512 14.7173 4.57961 14.2464 4.85071C12.2417 6.00644 11.7923 9.60917 12.8267 14.1322C8.38932 15.502 5.5 17.6921 5.5 20.0036C5.5 22.3222 8.40359 24.5195 12.8553 25.8821C11.828 30.4194 12.2845 34.0293 14.2964 35.185C14.7601 35.4561 15.3023 35.5845 15.9015 35.5845C17.8634 35.5845 20.4317 34.1862 23.0285 31.7606C25.6254 34.1719 28.1936 35.556 30.1555 35.556C30.7548 35.556 31.297 35.4276 31.7678 35.1565C33.7725 34.0007 34.222 30.398 33.1875 25.875C37.6107 24.5123 40.5 22.315 40.5 20.0036ZM31.2114 15.2451C30.9474 16.1654 30.6192 17.1143 30.2483 18.0631C29.9558 17.4924 29.649 16.9216 29.3137 16.3509C28.9855 15.7802 28.636 15.2237 28.2864 14.6815C29.2994 14.8313 30.2768 15.0168 31.2114 15.2451ZM27.9439 22.843C27.3875 23.8061 26.8168 24.7192 26.2246 25.5682C25.1616 25.6609 24.0844 25.7109 23 25.7109C21.9227 25.7109 20.8455 25.6609 19.7896 25.5753C19.1975 24.7264 18.6196 23.8203 18.0632 22.8644C17.521 21.9298 17.0287 20.981 16.5793 20.025C17.0216 19.069 17.521 18.113 18.0561 17.1785C18.6125 16.2154 19.1832 15.3022 19.7754 14.4532C20.8384 14.3605 21.9156 14.3106 23 14.3106C24.0773 14.3106 25.1545 14.3605 26.2104 14.4461C26.8025 15.2951 27.3804 16.2011 27.9368 17.1571C28.479 18.0916 28.9713 19.0405 29.4207 19.9964C28.9713 20.9524 28.479 21.9084 27.9439 22.843ZM30.2483 21.9155C30.6335 22.8715 30.9617 23.8275 31.2328 24.7549C30.2982 24.9832 29.3137 25.1758 28.2935 25.3256C28.6431 24.7763 28.9927 24.2127 29.3208 23.6348C29.649 23.0641 29.9558 22.4863 30.2483 21.9155ZM23.0143 29.5276C22.3508 28.8428 21.6873 28.0794 21.031 27.2447C21.6731 27.2733 22.3294 27.2947 22.9929 27.2947C23.6635 27.2947 24.3269 27.2804 24.9762 27.2447C24.3341 28.0794 23.6706 28.8428 23.0143 29.5276ZM17.7065 25.3256C16.6934 25.1758 15.7161 24.9903 14.7815 24.762C15.0455 23.8417 15.3736 22.8929 15.7446 21.9441C16.0371 22.5148 16.3439 23.0855 16.6792 23.6563C17.0145 24.227 17.3569 24.7834 17.7065 25.3256ZM22.9786 10.4795C23.6421 11.1644 24.3055 11.9278 24.9619 12.7624C24.3198 12.7339 23.6635 12.7125 23 12.7125C22.3294 12.7125 21.6659 12.7268 21.0167 12.7624C21.6588 11.9278 22.3223 11.1644 22.9786 10.4795ZM17.6993 14.6815C17.3498 15.2309 17.0002 15.7945 16.672 16.3723C16.3439 16.943 16.0371 17.5138 15.7446 18.0845C15.3594 17.1285 15.0312 16.1726 14.7601 15.2451C15.6947 15.024 16.6792 14.8313 17.6993 14.6815ZM11.243 23.6134C8.71749 22.5362 7.08377 21.1236 7.08377 20.0036C7.08377 18.8835 8.71749 17.4638 11.243 16.3937C11.8565 16.1298 12.5271 15.8943 13.2191 15.6732C13.6258 17.0715 14.1608 18.5268 14.8243 20.0179C14.168 21.5017 13.64 22.95 13.2405 24.3411C12.5342 24.12 11.8636 23.8774 11.243 23.6134ZM15.0811 33.8081C14.1109 33.2516 13.69 31.1328 14.0181 28.4076C14.0966 27.737 14.225 27.0307 14.382 26.3101C15.7803 26.6526 17.307 26.9165 18.9121 27.0878C19.8753 28.4076 20.874 29.6061 21.8799 30.6548C19.5542 32.8165 17.3712 34.0007 15.8873 34.0007C15.5662 33.9936 15.2951 33.9294 15.0811 33.8081ZM32.0033 28.3719C32.3386 31.0971 31.9248 33.216 30.9617 33.7796C30.7477 33.908 30.4694 33.9651 30.1413 33.9651C28.6645 33.9651 26.4743 32.7879 24.1486 30.6406C25.1474 29.5918 26.1461 28.4004 27.095 27.0806C28.7073 26.9094 30.234 26.6454 31.6323 26.2959C31.7964 27.0164 31.9248 27.7084 32.0033 28.3719ZM34.7499 23.6134C34.1364 23.8774 33.4658 24.1128 32.7737 24.334C32.3671 22.9357 31.832 21.4803 31.1686 19.9893C31.8249 18.5054 32.3528 17.0572 32.7523 15.666C33.4586 15.8872 34.1292 16.1298 34.757 16.3937C37.2825 17.471 38.9162 18.8835 38.9162 20.0036C38.9091 21.1236 37.2754 22.5433 34.7499 23.6134Z" fill="#61DAFB"/>
<path d="M22.9928 23.2639C24.7934 23.2639 26.2531 21.8042 26.2531 20.0036C26.2531 18.203 24.7934 16.7433 22.9928 16.7433C21.1922 16.7433 19.7325 18.203 19.7325 20.0036C19.7325 21.8042 21.1922 23.2639 22.9928 23.2639Z" fill="#61DAFB"/>
</g>
<defs>
<clipPath id="clip0_305_38">
<rect width="35" height="39.8815" fill="white" transform="translate(5.5 0.0592651)"/>
</clipPath>
</defs>
</svg>
