<svg width="300" height="301" viewBox="0 0 300 301" fill="none" xmlns="http://www.w3.org/2000/svg">
<path d="M107.812 169.231C107.812 174.406 103.613 178.606 98.4375 178.606C93.2625 178.606 89.0625 174.406 89.0625 169.231C89.0625 164.056 93.2625 159.856 98.4375 159.856C103.613 159.856 107.812 164.056 107.812 169.231ZM135.938 159.856C130.762 159.856 126.562 164.056 126.562 169.231C126.562 174.406 130.762 178.606 135.938 178.606C141.113 178.606 145.312 174.406 145.312 169.231C145.312 164.056 141.113 159.856 135.938 159.856ZM60.9375 159.856C55.7625 159.856 51.5625 164.056 51.5625 169.231C51.5625 174.406 55.7625 178.606 60.9375 178.606C66.1125 178.606 70.3125 174.406 70.3125 169.231C70.3125 164.056 66.1125 159.856 60.9375 159.856ZM215.625 56.75C210.45 56.75 206.25 60.95 206.25 66.125C206.25 71.3 210.45 75.5 215.625 75.5C220.8 75.5 225 71.3 225 66.125C225 60.95 220.8 56.75 215.625 56.75ZM253.125 56.75C247.95 56.75 243.75 60.95 243.75 66.125C243.75 71.3 247.95 75.5 253.125 75.5C258.3 75.5 262.5 71.3 262.5 66.125C262.5 60.95 258.3 56.75 253.125 56.75ZM178.125 56.75C172.95 56.75 168.75 60.95 168.75 66.125C168.75 71.3 172.95 75.5 178.125 75.5C183.3 75.5 187.5 71.3 187.5 66.125C187.5 60.95 183.3 56.75 178.125 56.75ZM105.928 289.25L68.4281 233.009C67.8094 232.072 66.75 231.509 65.625 231.509H28.125C19.65 231.509 12.75 224.619 12.75 216.134V122.375C12.75 113.9 19.65 107 28.125 107H168.75C177.225 107 184.125 113.9 184.125 122.375V216.134C184.125 224.609 177.234 231.509 168.75 231.509H103.125V238.269H168.75C180.956 238.269 190.875 228.341 190.875 216.144V125.75H215.625V119H190.622C188.991 108.397 179.803 100.25 168.75 100.25H144V28.625C144 20.15 150.9 13.25 159.375 13.25H271.875C280.35 13.25 287.25 20.15 287.25 28.625V103.625C287.25 112.1 280.359 119 271.875 119H243.75C242.466 119 241.303 119.722 240.731 120.866L221.981 158.366L228.028 161.384L245.841 125.75H271.875C284.081 125.75 294 115.822 294 103.625V28.625C294 16.4281 284.072 6.5 271.875 6.5H159.375C147.178 6.5 137.25 16.4281 137.25 28.625V100.25H28.125C15.9281 100.25 6 110.178 6 122.375V216.134C6 228.341 15.9281 238.259 28.125 238.259H63.8156L100.322 293L105.928 289.25Z" fill="#9747FF"/>
</svg>
